Patient4_TMGait_0pt4_01_left_16_EMG.mot
version=1
nRows=23
nColumns=33
inDegrees=no
endheader
time	1LAddLong	2LGlutMax	3LGlutMed	4LIliopsoas	5LSemiMemb	6LBicFemLong	7LRecFem	8LVastMed	9LVastLat	10LGasMed	11LTibAnt	12lTibPost	13LPeroneusLong	14LSol	15LExtDigLong	16LFlexDigLong	17RAddLong	18RGlutMax	19RGlutMed	20RIliopsoas	21RSemiMemb	22RBicFemLong	23RRecFem	24RVastMed	25RVastLat	26RGasMed	27RTibAnt	28RTibPost	29RPeroneusLong	30RSol	31RExtDigLong	32RFlexDigLong
20.372	0.003967	0.12589	0.009308	0.009155	0.001068	0.081329	-0.16342	0.018616	-0.11658	0.053101	-0.036163	-0.02533	-0.019226	-0.063934	0.013275	0.027924	-0.034637	-0.050812	0.068817	-0.055695	0.037994	-0.20035	0.054169	-0.00412	0.030975	-0.002441	-0.23895	0.001984	0.066833	0.28061	0.00473	-0.029449
20.373	-0.010071	0.12528	-0.11536	0	-0.008698	0.12924	-0.10269	0.01297	-0.054932	0.079651	-0.055237	-0.045471	0.012512	0.12482	0.025787	0.035095	-0.024872	-0.054932	0.058594	-0.065308	-0.014038	-0.18829	0.048828	-0.086517	0.010529	-0.004883	-0.35126	0.00061	0.096893	0.32196	-0.006561	-0.021973
20.374	-0.023346	0.077057	-0.14481	-0.006409	-0.041962	0.14587	-0.04364	-0.012665	-0.096283	0.12848	0.011749	-0.045471	-0.026703	0.15091	0.024719	0.057678	0.005951	-0.080872	0.085602	-0.027466	-0.092163	-0.2298	0.10178	-0.15656	-0.008545	0.002747	-0.17227	-0.000305	0.10223	0.16525	-0.010834	-0.019836
20.375	-0.016174	0.081177	-0.18372	-0.010834	-0.094452	0.13153	-0.011902	-0.015106	-0.19196	0.1329	0.005798	-0.028839	-0.071106	0.093689	-0.014801	0.087585	-0.018616	-0.13718	0.091858	0.006561	-0.12268	-0.16602	0.11871	-0.16998	-0.002289	0.003967	-0.011597	-0.000305	0.064697	0.08194	-0.003357	-0.015259
20.376	-0.016937	0.11124	-0.13962	-0.0177	-0.15625	0.10239	-0.012207	-0.007324	-0.2507	0.056458	-0.027008	-0.042419	-0.000458	-0.075378	-0.093842	-0.21118	-0.033875	-0.18692	0.045319	0.044098	-0.10483	-0.11795	0.12253	-0.12375	-0.007324	0.00061	-0.025787	-0.000916	0.032349	0.054169	-0.003357	-0.012665
20.377	-0.022736	0.10727	-0.20935	-0.013733	-0.048065	0.11383	0.010376	0.005188	-0.26825	0.015259	-0.049896	-0.039368	0.032043	-0.14343	-0.10956	0.027161	-0.045319	-0.1889	0.031738	0.088654	-0.078583	-0.050354	0.11643	-0.086823	0.005493	0.000305	0.14862	-0.000763	0.032654	0.0354	-0.003662	-0.009155
20.378	-0.016174	0.15579	-0.31342	-0.001984	0.027008	0.12894	0.020752	0.012817	-0.2475	-0.084076	-0.020905	-0.059509	-0.018158	-0.095673	-0.15015	0.11047	-0.083771	-0.15091	0.03479	0.14755	-0.06546	0.035706	0.12085	-0.11566	0.014954	0.001068	0.08667	-0.000458	0.026703	0.021057	-0.003357	-0.018311
20.379	-0.002747	0.23041	-0.39047	0.013885	-0.002747	0.11185	0.032043	0.001678	-0.25803	-0.19241	-0.025482	-0.056915	-0.019836	-0.061951	-0.12283	-1.1858	-0.075989	-0.10361	0.10391	0.12543	-0.063782	0.080872	0.17242	-0.11154	0.006866	0.00061	0.14954	0.002747	0.046539	-0.055695	0.000305	-0.016937
20.38	-0.013275	0.27237	-0.28	-0.005798	-0.0354	0.11032	0.026398	0.014191	-0.26962	-0.15991	-0.055084	-0.024872	-0.032043	0.0383	-0.020447	0.066681	-0.046692	-0.15778	0.098267	0.097046	-0.048065	0.12985	0.1886	-0.096436	0.027924	0.011444	0.51621	0.00351	0.062714	-0.10544	0.00061	-0.013123
20.381	-0.002136	0.24963	-0.25269	0.017242	0.009918	0.089417	0.081177	0.002747	-0.29037	-0.17487	-0.02655	-0.030518	-0.049133	0.1532	0.032349	-0.12054	-0.031586	-0.14526	0.06958	0.10635	-0.001068	0.11963	0.22293	-0.037079	0.031128	0.014343	-0.1004	0.002289	0.088196	-0.11993	-0.001068	-0.010376
20.382	-0.003357	0.25635	-0.00473	0.004272	0.009766	0.099335	0.11673	0.00061	-0.31998	-0.050659	-0.00885	-0.02182	-0.018158	0.23895	-0.002136	0.18631	-0.003815	-0.17548	0.10391	0.073853	0.024261	0.046844	0.21576	-0.040741	0.034332	-0.001373	0.099182	0.002289	-0.19379	-0.076752	-0.002441	-0.016785
20.383	-0.021057	0.13016	-0.11536	0.007019	-0.039978	0.09964	0.13306	0.004272	-0.34439	0.036926	-0.002136	-0.051575	-0.016632	0.23987	-0.005493	0.10284	-0.027161	-0.18524	0.13458	-0.019989	0.076447	0.061035	0.21469	0.014496	0.05722	-0.00473	0.29068	-0.000153	-0.27588	-0.071869	-0.000916	-0.018463
20.384	-0.022278	0.1387	0.099182	-0.005951	-0.075073	0.039368	0.15121	0.010834	-0.35095	0.036621	-0.012817	-0.037689	0.10742	0.12833	0.018463	0.8252	-0.020905	-0.15976	0.15121	-0.072632	0.10498	0.036163	0.271	-0.024872	0.031433	0.004272	-0.072937	-0.000763	-0.081329	-0.031586	0.001526	-0.022736
20.385	-0.02243	0.25177	0.26733	0.016174	-0.057831	-0.087128	0.14679	0.024719	-0.26489	0.12695	-0.001373	-0.030975	0.16907	-0.103	0.018463	0.16678	0.04425	-0.16449	0.15091	-0.12238	0.067444	-0.044556	0.32669	-0.075684	0.014954	0.000763	0.24536	-0.005341	-0.015869	-0.052338	-0.001526	-0.019226
20.386	-0.016632	0.28534	0.25482	0.005188	-0.031586	-0.066833	0.12543	0.034485	-0.1326	0.18524	0.000763	-0.015106	0.16068	-0.17838	0.060577	0.021667	0.066223	-0.16098	0.10132	-0.12375	0.036163	-0.089722	0.3009	-0.094299	0.003815	0.001678	0.3595	-0.005341	0.019836	0.013275	-0.001678	-0.015259
20.387	-0.010223	0.25406	0.059814	0.010223	-0.026855	-0.012512	0.072327	0.043182	0.002594	0.25253	0.002899	0.046082	0.15335	-0.27283	0.070343	0.039978	0.06134	-0.17548	0.071411	-0.066223	0.050812	-0.082855	0.25497	-0.019073	0.036316	0.006714	-0.20538	0.000763	0.14801	0.019836	-0.00061	-0.015106
20.388	-0.002899	0.2536	0.14496	0.012512	0.035858	-0.025024	-0.092773	0.029755	0.1593	0.2626	0.003815	0.10239	0.10757	0.041962	0.067444	-0.040131	0.055389	-0.17746	0.10452	-0.0354	0.057526	-0.027618	0.24399	0.016632	0.060577	0.011292	-0.33447	-0.007172	0.22034	-0.019684	-0.001068	-0.008545
20.389	-0.001068	0.1297	0.099792	-0.002289	0.046082	-0.013123	-0.21912	0.020905	0.36163	0.15289	-0.003204	-0.03067	0.064697	0.070953	0.019684	-0.020752	0.059814	-0.1506	0.12878	-0.010376	0.084381	0.064545	0.18219	0.039978	0.066071	0.005951	-0.31906	-0.001678	0.21851	0.010223	0.000763	-0.009003
20.39	0.000763	0.063171	-0.1181	-0.014496	-0.009003	-0.016479	-0.24063	-0.007782	0.30655	0.014038	0.06485	-0.1149	-0.009613	-0.66254	0.016327	-0.094299	0.066223	-0.18448	0.1384	-0.014343	0.06546	0.023041	0.16602	0.056	0.066986	0.006256	0.10315	-0.001526	0.049591	0.051575	-0.001221	-0.014954
20.391	0.012054	0.072784	-0.15182	0.004578	-0.028992	0.047913	-0.10208	-0.016479	0.04715	-0.19394	0.09903	-0.11017	-0.054626	-0.66284	0.02121	-0.21622	0.046844	-0.18692	0.10162	-0.003052	0.058136	0.014954	0.17303	0.012512	0.050507	0.001984	0.26382	0.000153	-0.20935	0.006104	0.003967	-0.012665
20.392	0.005341	0.1532	-0.10651	0.012054	-0.050964	0.06897	-0.035553	-0.029449	-0.079498	-0.28168	0.06958	0.1918	-0.066681	-0.056	0.001831	0.37827	0.010681	-0.17838	0.086212	0.036469	0.03479	-0.011292	0.19989	-0.043488	0.051422	0.004425	-0.59647	-0.002441	-0.05249	-0.069427	-0.003204	-0.013733
20.393	-0.007477	0.16815	0.024414	0.010223	-0.048218	-0.036926	0.049896	-0.009155	-0.16083	-0.25085	-0.002594	0.10101	-0.15121	0.27191	0.034332	-0.69321	-0.027008	-0.21133	0.09201	0.077972	-0.009308	-0.087891	0.24414	-0.054016	0.050659	0.015259	-1.456	-0.005493	0.20828	-0.088959	-0.005035	-0.015564
20.394	-0.016022	0.1619	0.13748	-0.000153	-0.055389	-0.045471	0.079346	0.015564	-0.31784	-0.12054	-0.14191	-0.090027	-0.13107	0.54199	-0.016022	0.29587	-0.061188	-0.25085	0.053101	0.082092	-0.057831	-0.13702	0.22171	-0.079346	0.067139	0.019989	-0.61203	-0.003967	0.19898	-0.089111	-0.002289	-0.001068
